<?xml version="1.0" standalone="no"?>
<!DOCTYPE svg PUBLIC "-//W3C//DTD SVG 20010904//EN"
 "http://www.w3.org/TR/2001/REC-SVG-20010904/DTD/svg10.dtd">
<svg version="1.0" xmlns="http://www.w3.org/2000/svg"
 width="246.000000pt" height="246.000000pt" viewBox="0 0 246.000000 246.000000"
 preserveAspectRatio="xMidYMid meet">
<metadata>
Created by potrace 1.14, written by Peter Selinger 2001-2017
</metadata>
<g transform="translate(0.000000,246.000000) scale(0.100000,-0.100000)"
fill="#000000" stroke="none">
<path d="M61 2162 c-8 -3 -11 -266 -11 -896 l0 -893 253 2 c309 2 368 12 527
88 175 84 346 281 419 482 179 496 -66 1003 -566 1171 -83 28 -87 29 -160 40
-49 7 -443 12 -462 6z m570 -440 c26 -11 50 -25 54 -31 3 -6 10 -9 15 -6 7 4
131 -111 155 -145 74 -104 96 -303 50 -447 -24 -75 -69 -146 -128 -200 -72
-65 -213 -127 -310 -136 -47 -5 -47 -5 -48 27 -1 40 -1 954 0 982 l1 21 83
-22 c45 -12 103 -32 128 -43z"/>
<path d="M1453 1270 l2 -895 455 -1 c250 0 460 1 465 3 7 2 10 67 9 186 -1
100 -2 184 -3 188 0 3 -125 5 -277 5 -157 -1 -278 3 -282 8 -3 5 -5 322 -5
705 l0 696 -183 0 -183 0 2 -895z"/>
</g>
</svg>
